# xmcd
#
# Track frame offsets: 
#        150
#        22537
#        47640
#        63060
#        83840
#        98105
#        114527
#        128730
#        145652
#        168997
#        181810
#        196157
#        215847
#        229610
#        243512
#        259890
#        277222
#
# Disc length: 3797 seconds
#
# Revision: 0
# Processed by: cddbd v1.5.2PL0 Copyright (c) Steve Scherf et al.
# Submitted via: ExactAudioCopy v0.99pb5
#
DISCID=e40ed311
DTITLE=Al Rapone And The Zydeco Express - Live At Dingwall's Dancehall
DYEAR=1985
DGENRE=Zydeco
TTITLE0=Cést La Vie
TTITLE1=Tit Fille
TTITLE2=Rosa Majeur
TTITLE3=Camden Zydeco
TTITLE4=Sa Moi Fam Du Mal
TTITLE5=Fu Ils Sa
TTITLE6=Mazuka
TTITLE7=Joe Pete
TTITLE8=La Vierge
TTITLE9=Corps Solide
TTITLE10=Baby Let Me Ride You Home
TTITLE11=Tu Le Ton Son Ton
TTITLE12=Alice Mae
TTITLE13=Chere Duloune
TTITLE14=Negress
TTITLE15=Gran Basile
TTITLE16=So Glad You Made It
EXTD=
EXTT0=
EXTT1=
EXTT2=
EXTT3=
EXTT4=
EXTT5=
EXTT6=
EXTT7=
EXTT8=
EXTT9=
EXTT10=
EXTT11=
EXTT12=
EXTT13=
EXTT14=
EXTT15=
EXTT16=
PLAYORDER=
